<svg width="1324" height="1312" viewBox="0 0 1324 1312" fill="none" xmlns="http://www.w3.org/2000/svg">
<mask id="mask0_81_112" style="mask-type:alpha" maskUnits="userSpaceOnUse" x="274" y="296" width="787" height="708">
<path d="M634.592 996.196C812.431 1043 970.131 855.421 1026.75 755.778C1037.72 738.812 1059.87 689.232 1060.74 626.638C1061.83 548.395 902.833 549.763 848.666 511.261C794.5 472.76 756.29 393.66 677.506 326.542C598.721 259.425 507.427 313.927 481.817 405.217C456.208 496.508 303.696 403.134 277.173 608.027C250.65 812.92 412.293 937.686 634.592 996.196Z" fill="#0B56FA"/>
</mask>
<g mask="url(#mask0_81_112)">
<rect x="321.307" y="61.6798" width="1256.55" height="8.35841" transform="rotate(36.8196 321.307 61.6798)" fill="#25356A" fill-opacity="0.05"/>
<rect x="307.948" y="79.5225" width="1256.55" height="8.35841" transform="rotate(36.8196 307.948 79.5225)" fill="#25356A" fill-opacity="0.05"/>
<rect x="294.591" y="97.3655" width="1256.55" height="8.35841" transform="rotate(36.8196 294.591 97.3655)" fill="#25356A" fill-opacity="0.05"/>
<rect x="281.232" y="115.208" width="1256.55" height="8.35841" transform="rotate(36.8196 281.232 115.208)" fill="#25356A" fill-opacity="0.05"/>
<rect x="267.875" y="133.052" width="1256.55" height="8.35841" transform="rotate(36.8196 267.875 133.052)" fill="#25356A" fill-opacity="0.05"/>
<rect x="254.517" y="150.895" width="1256.55" height="8.35841" transform="rotate(36.8196 254.517 150.895)" fill="#25356A" fill-opacity="0.05"/>
<rect x="241.159" y="168.738" width="1256.55" height="8.35841" transform="rotate(36.8196 241.159 168.738)" fill="#25356A" fill-opacity="0.05"/>
<rect x="227.802" y="186.581" width="1256.55" height="8.35841" transform="rotate(36.8196 227.802 186.581)" fill="#25356A" fill-opacity="0.05"/>
<rect x="214.444" y="204.424" width="1256.55" height="8.35841" transform="rotate(36.8196 214.444 204.424)" fill="#25356A" fill-opacity="0.05"/>
<rect x="201.086" y="222.267" width="1256.55" height="8.35841" transform="rotate(36.8196 201.086 222.267)" fill="#25356A" fill-opacity="0.05"/>
<rect x="187.728" y="240.11" width="1256.55" height="8.35841" transform="rotate(36.8196 187.728 240.11)" fill="#25356A" fill-opacity="0.05"/>
<rect x="174.37" y="257.953" width="1256.55" height="8.35841" transform="rotate(36.8196 174.37 257.953)" fill="#25356A" fill-opacity="0.05"/>
<rect x="161.012" y="275.796" width="1256.55" height="8.35841" transform="rotate(36.8196 161.012 275.796)" fill="#25356A" fill-opacity="0.05"/>
<rect x="147.655" y="293.639" width="1256.55" height="8.35841" transform="rotate(36.8196 147.655 293.639)" fill="#25356A" fill-opacity="0.05"/>
<rect x="134.297" y="311.482" width="1256.55" height="8.35841" transform="rotate(36.8196 134.297 311.482)" fill="#25356A" fill-opacity="0.05"/>
<rect x="120.939" y="329.325" width="1256.55" height="8.35841" transform="rotate(36.8196 120.939 329.325)" fill="#25356A" fill-opacity="0.05"/>
<rect x="107.581" y="347.168" width="1256.55" height="8.35841" transform="rotate(36.8196 107.581 347.168)" fill="#25356A" fill-opacity="0.05"/>
<rect x="94.2236" y="365.011" width="1256.55" height="8.35841" transform="rotate(36.8196 94.2236 365.011)" fill="#25356A" fill-opacity="0.05"/>
<rect x="80.8658" y="382.854" width="1256.55" height="8.35841" transform="rotate(36.8196 80.8658 382.854)" fill="#25356A" fill-opacity="0.05"/>
<rect x="67.5081" y="400.697" width="1256.55" height="8.35841" transform="rotate(36.8196 67.5081 400.697)" fill="#25356A" fill-opacity="0.05"/>
<rect x="54.1503" y="418.54" width="1256.55" height="8.35841" transform="rotate(36.8196 54.1503 418.54)" fill="#25356A" fill-opacity="0.05"/>
<rect x="39.1228" y="438.613" width="1256.55" height="8.35841" transform="rotate(36.8196 39.1228 438.613)" fill="#25356A" fill-opacity="0.05"/>
<rect x="24.0952" y="458.687" width="1256.55" height="8.35841" transform="rotate(36.8196 24.0952 458.687)" fill="#25356A" fill-opacity="0.05"/>
<rect x="9.06763" y="478.76" width="1256.55" height="8.35841" transform="rotate(36.8196 9.06763 478.76)" fill="#25356A" fill-opacity="0.05"/>
<rect x="-5.95996" y="498.833" width="1256.55" height="8.35841" transform="rotate(36.8196 -5.95996 498.833)" fill="#25356A" fill-opacity="0.05"/>
<rect x="-20.9869" y="518.907" width="1256.55" height="8.35841" transform="rotate(36.8196 -20.9869 518.907)" fill="#25356A" fill-opacity="0.05"/>
<rect x="-36.0145" y="538.98" width="1256.55" height="8.35841" transform="rotate(36.8196 -36.0145 538.98)" fill="#25356A" fill-opacity="0.05"/>
</g>
</svg>
