<svg width="63" height="46" viewBox="0 0 63 46" fill="none" xmlns="http://www.w3.org/2000/svg">
<g id="Quote icon">
<path id="&#226;&#128;&#156;" d="M0.500031 30.4753C0.500031 38.8002 6.61627 45.7659 13.7519 45.7659C20.7176 45.7659 25.9844 40.4992 25.9844 33.7033C25.9844 26.3978 19.5283 21.4708 11.0336 20.9612C13.2422 15.5245 16.9799 9.74804 24.2854 2.44252L22.0768 0.233887C7.97544 8.21898 0.500031 20.2816 0.500031 30.4753ZM36.8577 30.4753C36.8577 38.8002 42.9739 45.7659 50.1096 45.7659C57.0753 45.7659 62.3421 40.4992 62.3421 33.7033C62.3421 26.3978 55.886 21.4708 47.3912 20.9612C49.5999 15.5245 53.3376 9.74804 60.6431 2.44252L58.4345 0.233887C44.3331 8.21898 36.8577 20.2816 36.8577 30.4753Z" fill="black"/>
</g>
</svg>
